<svg width="24" preserveAspectRatio="none" height="25" viewBox="0 0 24 25" fill="none" xmlns="http://www.w3.org/2000/svg">
<path d="M18.215 7.70117H6.11499V17.4872H18.215V7.70117Z" fill="black"/>
<path d="M22.973 10.5981L22.951 10.2571C22.878 9.10211 22.788 7.66511 21.953 6.42711C21.9404 6.40822 21.9271 6.38987 21.913 6.37211C21.416 5.75611 20.603 5.29611 19.738 5.14311C18.711 4.95911 15.255 4.86011 12.008 4.86011C8.75999 4.86011 5.30399 4.96011 4.27999 5.14311C3.59928 5.26072 2.96407 5.56345 2.44399 6.01811C1.42399 6.91011 1.26999 8.27411 1.14899 9.37011C1.13643 9.48349 1.12343 9.59683 1.10999 9.71011C0.963988 11.5441 0.963988 13.3011 1.10999 15.7751V15.7961C1.19299 16.7411 1.25699 17.2291 1.43599 17.7931C1.65299 18.4961 1.94799 19.0161 2.33099 19.3781C2.81499 19.8451 3.46499 20.1671 4.20599 20.3081C5.12399 20.4871 5.90699 20.5521 10.143 20.6261H10.145C10.912 20.6371 11.648 20.6431 12.363 20.6431C15.104 20.6431 16.983 20.5561 19.613 20.3701C20.3652 20.2681 21.0681 19.9379 21.627 19.4241C21.977 19.0951 22.187 18.7821 22.4 18.2741C22.744 17.4741 22.849 16.6951 22.973 14.8971C23.009 14.3151 23.009 11.1861 22.973 10.5971V10.5981ZM15.53 13.2701C14.15 13.9511 11.47 15.2781 9.47199 16.3001C9.12199 16.4801 8.69999 16.2371 8.69999 15.8571V9.72111C8.69999 9.34611 9.11599 9.10311 9.46599 9.27411C11.569 10.3041 13.392 11.3141 15.53 12.3781C15.6146 12.418 15.6861 12.4811 15.7362 12.56C15.7863 12.639 15.8129 12.7306 15.8129 12.8241C15.8129 12.9176 15.7863 13.0092 15.7362 13.0882C15.6861 13.1672 15.6146 13.2303 15.53 13.2701Z" fill="white"/>
</svg>
