<svg width="24" preserveAspectRatio="none" height="25" viewBox="0 0 24 25" fill="none" xmlns="http://www.w3.org/2000/svg">
<path d="M14.309 11.624L10.519 15.21C9.97663 15.7213 9.64373 16.416 9.58497 17.159L9.31097 20.678L9.28297 20.674L9.27898 20.671L9.24197 20.658C9.21775 20.6494 9.19432 20.6387 9.17197 20.626C9.1069 20.5839 9.04998 20.5304 9.00397 20.468C8.85997 20.288 8.74697 20.048 8.63097 19.678C8.48397 19.218 8.04597 17.796 7.69497 16.654L7.25897 15.242L7.19397 15.036L7.07397 14.996L13.804 10.976C14.23 10.723 14.667 11.285 14.309 11.624Z" fill="white"/>
<path d="M21.304 6.10297L18.452 20.618L18.439 20.651C18.3374 20.8772 18.1844 21.0765 17.992 21.233C17.786 21.398 17.468 21.497 17.142 21.497C16.9113 21.4964 16.6831 21.4481 16.472 21.355L16.435 21.34L13.334 18.976C13.0987 18.796 12.8077 18.7042 12.5117 18.7166C12.2157 18.729 11.9334 18.8449 11.714 19.044L10.035 20.562L10.021 20.572C10.021 20.572 9.81602 20.718 9.55102 20.718C9.48102 20.718 9.41102 20.708 9.34402 20.688L9.31502 20.678H9.31102L9.58502 17.159C9.64302 16.419 9.97502 15.725 10.519 15.211L14.309 11.625C14.667 11.285 14.23 10.723 13.805 10.977L7.07502 14.996L3.21502 13.704C3.08649 13.6507 2.96411 13.5836 2.85002 13.504C2.54502 13.288 2.37902 13.038 2.34002 12.735C2.32122 12.5392 2.37184 12.3431 2.48302 12.181C2.59402 12.018 2.72302 11.924 2.81102 11.867C3.01102 11.731 3.20102 11.657 3.25402 11.637L3.27202 11.63C3.53502 11.52 7.38202 9.90797 11.293 8.27197L16.942 5.90797L17.811 5.54597C18.812 5.12797 19.497 4.84297 19.723 4.75197L19.764 4.73597C19.9642 4.65379 20.1769 4.60611 20.393 4.59497C20.579 4.59497 20.751 4.64297 20.917 4.74097C21.1131 4.86699 21.2567 5.05997 21.321 5.28397C21.384 5.51297 21.379 5.77297 21.304 6.10297Z" fill="white"/>
</svg>
